<svg width="800" height="240" viewBox="0 0 800 240" xmlns="http://www.w3.org/2000/svg" style="image-rendering:pixelated">
<defs>
  <style>
    /* ── GLOBAL ── */
    * { box-sizing: border-box; }

    /* ── SPIDER-MAN SWING ── */
    @keyframes spidey-swing {
      0%   { transform: translateX(0px)   translateY(0px)   rotate(-10deg); }
      30%  { transform: translateX(18px)  translateY(-22px) rotate(6deg);  }
      60%  { transform: translateX(32px)  translateY(2px)   rotate(-5deg); }
      80%  { transform: translateX(10px)  translateY(-10px) rotate(8deg);  }
      100% { transform: translateX(0px)   translateY(0px)   rotate(-10deg);}
    }
    @keyframes web-line {
      0%,100% { opacity:0; stroke-dashoffset:60; }
      30%,70% { opacity:1; stroke-dashoffset:0;  }
    }
    @keyframes web-line2 {
      0%,100% { opacity:0; stroke-dashoffset:80; }
      25%,75% { opacity:1; stroke-dashoffset:0;  }
    }
    @keyframes city-glow {
      0%,100% { opacity:0.35; }
      50%     { opacity:0.6;  }
    }

    /* ── LUFFY ARM STRETCH ── */
    @keyframes luffy-arm-stretch {
      0%,100% { transform: scaleX(1);   }
      35%,65% { transform: scaleX(2.8); }
    }
    @keyframes luffy-body-lean {
      0%,100% { transform: rotate(0deg);   }
      35%,65% { transform: rotate(-6deg);  }
    }
    @keyframes luffy-hat {
      0%,100% { transform: translateY(0px) rotate(0deg);   }
      50%     { transform: translateY(-6px) rotate(4deg);  }
    }
    @keyframes wave {
      0%   { transform: translateX(0);   }
      100% { transform: translateX(-80px); }
    }
    @keyframes gum-gum-flash {
      0%,30%,100% { opacity:0; }
      40%,60%     { opacity:1; }
    }

    /* ── IPPO PUNCH ── */
    @keyframes ippo-jab {
      0%,100% { transform: translateX(0px)  scaleX(1);   }
      18%     { transform: translateX(28px) scaleX(1.2); }
      36%     { transform: translateX(0px)  scaleX(1);   }
    }
    @keyframes ippo-body-twist {
      0%,100% { transform: rotate(0deg)  translateX(0px);  }
      18%     { transform: rotate(-5deg) translateX(7px);  }
      36%     { transform: rotate(0deg)  translateX(0px);  }
    }
    @keyframes impact {
      0%,15%,40%,100% { opacity:0; transform:scale(0) rotate(0deg);   }
      20%             { opacity:1; transform:scale(1) rotate(15deg);  }
      30%             { opacity:1; transform:scale(1.1) rotate(-10deg);}
    }
    @keyframes crowd-bob {
      0%,100% { transform: translateY(0); }
      50%     { transform: translateY(-3px); }
    }

    /* ── LABELS ── */
    @keyframes label-glow {
      0%,100% { opacity:0.75; }
      50%     { opacity:1;    }
    }

    /* ── SECTION BACKGROUNDS ── */
    @keyframes bg-pulse-red  { 0%,100%{opacity:0.07;} 50%{opacity:0.13;} }
    @keyframes bg-pulse-gold { 0%,100%{opacity:0.07;} 50%{opacity:0.13;} }
    @keyframes bg-pulse-green{ 0%,100%{opacity:0.07;} 50%{opacity:0.13;} }

    .spidey-group  { animation: spidey-swing 3.2s ease-in-out infinite; transform-origin: 118px 58px; }
    .web-a         { animation: web-line  3.2s ease-in-out infinite; stroke-dasharray:60; stroke-dashoffset:60; }
    .web-b         { animation: web-line2 3.2s ease-in-out infinite; stroke-dasharray:80; stroke-dashoffset:80; }
    .luffy-arm     { animation: luffy-arm-stretch 2.6s ease-in-out infinite; transform-origin: 388px 96px; }
    .luffy-body    { animation: luffy-body-lean   2.6s ease-in-out infinite; transform-origin: 390px 110px; }
    .luffy-hat-g   { animation: luffy-hat         2.6s ease-in-out infinite; transform-origin: 390px 68px; }
    .wave-g        { animation: wave 3s linear infinite; }
    .gum-label     { animation: gum-gum-flash 2.6s ease-in-out infinite; }
    .ippo-body-g   { animation: ippo-body-twist 1.9s ease-in-out infinite; transform-origin: 646px 118px; }
    .ippo-jab-g    { animation: ippo-jab        1.9s ease-in-out infinite; transform-origin: 662px 94px; }
    .impact-g      { animation: impact          1.9s ease-in-out infinite; transform-origin: 698px 88px; }
    .crowd-g       { animation: crowd-bob 1.2s ease-in-out infinite; }
    .lbl           { animation: label-glow 2s ease-in-out infinite; }
    .bg-r          { animation: bg-pulse-red   3s ease-in-out infinite; }
    .bg-g          { animation: bg-pulse-gold  3s ease-in-out 0.8s infinite; }
    .bg-gr         { animation: bg-pulse-green 3s ease-in-out 1.6s infinite; }
  </style>

  <!-- Web pattern for buildings -->
  <pattern id="win" x="0" y="0" width="14" height="14" patternUnits="userSpaceOnUse">
    <rect width="14" height="14" fill="none"/>
    <rect x="2" y="2" width="4" height="4" fill="#fbbf24" opacity="0.4"/>
    <rect x="8" y="2" width="4" height="4" fill="#93c5fd" opacity="0.3"/>
    <rect x="2" y="8" width="4" height="4" fill="#93c5fd" opacity="0.3"/>
    <rect x="8" y="8" width="4" height="4" fill="#fbbf24" opacity="0.2"/>
  </pattern>

  <!-- Scanline overlay -->
  <pattern id="scan" x="0" y="0" width="2" height="4" patternUnits="userSpaceOnUse">
    <rect width="2" height="1" fill="#000000" opacity="0.08"/>
  </pattern>
</defs>

<!-- ══════════════════════════════════════════════════════════ -->
<!-- OVERALL BACKGROUND                                          -->
<!-- ══════════════════════════════════════════════════════════ -->
<rect width="800" height="240" fill="#0d1117"/>

<!-- pixel grid -->
<rect width="800" height="240" fill="none" stroke="#1f2937" stroke-width="0.4" opacity="0.5"
  style="background: repeating-linear-gradient(0deg, transparent, transparent 19px, #1f2937 19px, #1f2937 20px)"/>

<!-- section bg glows -->
<rect x="0"   y="0" width="266" height="240" fill="#dc143c" rx="0" class="bg-r"/>
<rect x="267" y="0" width="266" height="240" fill="#f59e0b" rx="0" class="bg-g"/>
<rect x="534" y="0" width="266" height="240" fill="#22c55e" rx="0" class="bg-gr"/>

<!-- dividers -->
<rect x="264" y="0" width="3" height="240" fill="#1f6feb" opacity="0.6"/>
<rect x="531" y="0" width="3" height="240" fill="#1f6feb" opacity="0.6"/>

<!-- scanlines on top -->
<rect width="800" height="240" fill="url(#scan)" opacity="0.5"/>

<!-- ══════════════════════════════════════════════════════════ -->
<!-- SECTION LABELS                                              -->
<!-- ══════════════════════════════════════════════════════════ -->
<text x="133" y="20" text-anchor="middle" fill="#ff4466" font-family="'Courier New',monospace" font-size="10" font-weight="bold" letter-spacing="1.5" class="lbl">🕷 SPIDER-MAN</text>
<text x="399" y="20" text-anchor="middle" fill="#f59e0b" font-family="'Courier New',monospace" font-size="10" font-weight="bold" letter-spacing="1.5" class="lbl">🏴‍☠️ ONE PIECE</text>
<text x="666" y="20" text-anchor="middle" fill="#4ade80" font-family="'Courier New',monospace" font-size="10" font-weight="bold" letter-spacing="1.5" class="lbl">🥊 HAJIME NO IPPO</text>


<!-- ══════════════════════════════════════════════════════════ -->
<!-- ZONE 1 — SPIDER-MAN (0 → 264)                             -->
<!-- ══════════════════════════════════════════════════════════ -->

<!-- city buildings (back) -->
<rect x="10"  y="155" width="38" height="78" fill="#111827"/>
<rect x="52"  y="132" width="28" height="101" fill="#0f172a"/>
<rect x="84"  y="148" width="22" height="85" fill="#111827"/>
<rect x="165" y="138" width="42" height="95" fill="#111827"/>
<rect x="207" y="118" width="34" height="115" fill="#0f172a"/>
<rect x="10"  y="155" width="38" height="78" fill="url(#win)" opacity="0.9"/>
<rect x="52"  y="132" width="28" height="101" fill="url(#win)" opacity="0.9"/>
<rect x="165" y="138" width="42" height="95" fill="url(#win)" opacity="0.9"/>
<rect x="207" y="118" width="34" height="115" fill="url(#win)" opacity="0.9"/>

<!-- web anchor at top -->
<circle cx="118" cy="28" r="3" fill="#cccccc" opacity="0.7"/>
<!-- web rope (animated) -->
<line x1="118" y1="28" x2="118" y2="62" stroke="#cccccc" stroke-width="1.8" class="web-a"/>
<!-- second web to building -->
<line x1="118" y1="62" x2="220" y2="38" stroke="#cccccc" stroke-width="1.5" class="web-b"/>

<!-- SPIDER-MAN CHARACTER (swinging group) -->
<g class="spidey-group">
  <!-- ── HEAD ── -->
  <!-- mask top dome -->
  <rect x="109" y="56" width="18" height="5"  fill="#dc143c"/>
  <rect x="106" y="61" width="24" height="5"  fill="#dc143c"/>
  <!-- white eyes (pointed) -->
  <rect x="108" y="61" width="6"  height="5"  fill="#ffffff" rx="1"/>
  <rect x="118" y="61" width="6"  height="5"  fill="#ffffff" rx="1"/>
  <rect x="109" y="62" width="4"  height="3"  fill="#d0d0d0" rx="1"/>
  <rect x="119" y="62" width="4"  height="3"  fill="#d0d0d0" rx="1"/>
  <!-- web lines on mask -->
  <line x1="118" y1="56" x2="106" y2="66" stroke="#991b1b" stroke-width="0.9"/>
  <line x1="118" y1="56" x2="130" y2="66" stroke="#991b1b" stroke-width="0.9"/>
  <line x1="106" y1="61" x2="130" y2="61" stroke="#991b1b" stroke-width="0.9"/>
  <!-- jaw -->
  <rect x="109" y="66" width="18" height="4"  fill="#dc143c"/>

  <!-- ── TORSO ── -->
  <rect x="110" y="70" width="16" height="14" fill="#1e40af"/>
  <!-- chest spider emblem (simple) -->
  <rect x="115" y="72" width="6"  height="8"  fill="#000000" opacity="0.25"/>
  <!-- red chest panel top -->
  <rect x="110" y="70" width="16" height="3"  fill="#dc143c" opacity="0.6"/>

  <!-- ── ARMS ── -->
  <!-- left arm raised (holding web) -->
  <rect x="100" y="70" width="10" height="5"  fill="#1e40af" rx="2"/>
  <rect x="93"  y="65" width="8"  height="5"  fill="#dc143c" rx="2"/>
  <!-- right arm – web-shooting pose -->
  <rect x="126" y="70" width="10" height="5"  fill="#1e40af" rx="2"/>
  <rect x="134" y="67" width="7"  height="5"  fill="#dc143c" rx="2"/>
  <!-- web shooting from right hand -->
  <line x1="141" y1="69" x2="160" y2="50" stroke="#e5e5e5" stroke-width="1.8" class="web-b"/>

  <!-- ── LEGS (bent swing pose) ── -->
  <!-- left leg bent back -->
  <rect x="110" y="84" width="7"  height="12" fill="#dc143c" rx="1"/>
  <rect x="106" y="94" width="10" height="5"  fill="#dc143c" rx="1"/>
  <!-- right leg bent forward -->
  <rect x="119" y="84" width="7"  height="10" fill="#dc143c" rx="1"/>
  <rect x="120" y="93" width="9"  height="4"  fill="#dc143c" rx="1"/>
  <!-- boots -->
  <rect x="104" y="97" width="13" height="5"  fill="#1e40af"/>
  <rect x="118" y="95" width="12" height="5"  fill="#1e40af"/>
</g>

<!-- speech bubble (static, below character) -->
<rect x="30" y="115" width="108" height="26" fill="#dc143c" rx="5"/>
<polygon points="80,141 75,155 90,141" fill="#dc143c"/>
<text x="84" y="127" text-anchor="middle" fill="#ffffff" font-family="'Courier New',monospace" font-size="7" font-weight="bold">WITH GREAT CODE</text>
<text x="84" y="137" text-anchor="middle" fill="#ffffff" font-family="'Courier New',monospace" font-size="7" font-weight="bold">COMES GREAT POWER!</text>

<!-- floor / street -->
<rect x="0" y="210" width="264" height="5" fill="#1e40af" opacity="0.7"/>
<rect x="0" y="215" width="264" height="25" fill="#111827"/>
<!-- street markings -->
<rect x="40"  y="220" width="20" height="3" fill="#374151"/>
<rect x="80"  y="220" width="20" height="3" fill="#374151"/>
<rect x="120" y="220" width="20" height="3" fill="#374151"/>
<rect x="160" y="220" width="20" height="3" fill="#374151"/>
<rect x="200" y="220" width="20" height="3" fill="#374151"/>


<!-- ══════════════════════════════════════════════════════════ -->
<!-- ZONE 2 — LUFFY / ONE PIECE (267 → 531)                   -->
<!-- ══════════════════════════════════════════════════════════ -->

<!-- SEA -->
<rect x="267" y="195" width="264" height="45" fill="#0c4a6e"/>
<!-- animated waves -->
<g class="wave-g">
  <path d="M267,195 Q287,188 307,195 Q327,202 347,195 Q367,188 387,195 Q407,202 427,195 Q447,188 467,195 Q487,202 507,195 Q527,188 547,195 Q567,202 587,195 L587,210 L267,210 Z" fill="#0369a1" opacity="0.8"/>
</g>
<g style="animation: wave 3s linear infinite; animation-delay:-1.5s;">
  <path d="M267,200 Q282,194 297,200 Q312,206 327,200 Q342,194 357,200 Q372,206 387,200 Q402,194 417,200 Q432,206 447,200 Q462,194 477,200 Q492,206 507,200 Q522,194 537,200 L537,215 L267,215 Z" fill="#075985" opacity="0.6"/>
</g>

<!-- THOUSAND SUNNY ship -->
<!-- hull -->
<path d="M278,178 L318,178 L328,198 L268,198 Z" fill="#78350f"/>
<rect x="266" y="162" width="64" height="18" fill="#92400e" rx="3"/>
<!-- figurehead / lion nose -->
<ellipse cx="330" cy="175" rx="8" ry="6" fill="#f59e0b"/>
<rect x="328" y="172" width="6" height="6" fill="#d97706"/>
<!-- mast -->
<rect x="293" y="88" width="5" height="78" fill="#a16207"/>
<!-- cross spar -->
<rect x="275" y="115" width="42" height="4" fill="#854d0e"/>
<!-- sails -->
<path d="M298,91  L335,115 L298,139 Z" fill="#fef9c3" opacity="0.95"/>
<path d="M293,91  L256,115 L293,139 Z" fill="#fefce8" opacity="0.9"/>
<!-- Jolly Roger on sail -->
<rect x="265" y="100" width="14" height="12" fill="#1c1917" rx="2"/>
<ellipse cx="272" cy="104" rx="4" ry="4" fill="#f5f5f4"/>
<rect x="268" y="109" width="8" height="2" fill="#f5f5f4"/>
<!-- flag at top -->
<path d="M298,88 L316,95 L298,102 Z" fill="#1c1917"/>
<!-- crow's nest -->
<rect x="287" y="125" width="18" height="10" fill="#92400e" rx="2"/>

<!-- LUFFY character -->
<!-- Body wrapper (lean animation) -->
<g class="luffy-body">
  <!-- STRAW HAT (own animation) -->
  <g class="luffy-hat-g">
    <ellipse cx="399" cy="72" rx="22" ry="6" fill="#d97706"/>
    <rect x="388" y="66" width="22" height="12" fill="#fbbf24" rx="4"/>
    <!-- red band -->
    <rect x="387" y="75" width="24" height="4" fill="#dc2626" opacity="0.85"/>
  </g>

  <!-- HEAD -->
  <rect x="390" y="74" width="18" height="18" fill="#fde68a" rx="3"/>
  <!-- eyes (big anime) -->
  <rect x="392" y="78" width="5" height="6" fill="#1c1917" rx="1"/>
  <rect x="402" y="78" width="5" height="6" fill="#1c1917" rx="1"/>
  <!-- scar under left eye -->
  <line x1="393" y1="83" x2="396" y2="90" stroke="#dc2626" stroke-width="2"/>
  <!-- big grin -->
  <path d="M391,88 Q399,96 407,88" stroke="#1c1917" stroke-width="2" fill="none" stroke-linecap="round"/>

  <!-- TORSO (red vest) -->
  <rect x="390" y="92" width="18" height="18" fill="#dc2626" rx="2"/>
  <!-- vest open sides -->
  <rect x="390" y="92" width="4"  height="18" fill="#b91c1c"/>
  <rect x="404" y="92" width="4"  height="18" fill="#b91c1c"/>

  <!-- SHORTS (blue) -->
  <rect x="389" y="110" width="20" height="14" fill="#1d4ed8"/>
  <!-- shorts pattern dots -->
  <circle cx="394" cy="115" r="1.5" fill="#2563eb"/>
  <circle cx="400" cy="117" r="1.5" fill="#2563eb"/>
  <circle cx="406" cy="115" r="1.5" fill="#2563eb"/>

  <!-- LEGS -->
  <rect x="390" y="124" width="8"  height="16" fill="#fde68a"/>
  <rect x="400" y="124" width="8"  height="16" fill="#fde68a"/>
  <!-- sandals -->
  <rect x="388" y="138" width="12" height="5"  fill="#78350f"/>
  <rect x="399" y="138" width="12" height="5"  fill="#78350f"/>

  <!-- RIGHT ARM (static, bent) -->
  <rect x="408" y="94" width="14" height="6" fill="#fde68a" rx="3"/>
  <rect x="420" y="91" width="10" height="10" fill="#fde68a" rx="2"/>

  <!-- LEFT ARM — RUBBER STRETCH (animated, going left toward ship) -->
  <g class="luffy-arm">
    <rect x="330" y="94" width="62" height="8" fill="#fde68a" rx="4"/>
    <!-- fist -->
    <rect x="322" y="90" width="12" height="12" fill="#fde68a" rx="2"/>
    <!-- knuckle lines -->
    <line x1="325" y1="91" x2="325" y2="101" stroke="#d97706" stroke-width="1"/>
    <line x1="329" y1="91" x2="329" y2="101" stroke="#d97706" stroke-width="1"/>
  </g>
</g>

<!-- GUM-GUM label (flashes on punch) -->
<g class="gum-label">
  <rect x="300" y="156" width="130" height="24" fill="#f59e0b" rx="5"/>
  <text x="365" y="172" text-anchor="middle" fill="#1c1917" font-family="'Courier New',monospace" font-size="9" font-weight="bold">GUM-GUM PISTOL! 💥</text>
</g>

<!-- floor -->
<rect x="267" y="210" width="264" height="3" fill="#0369a1" opacity="0.8"/>


<!-- ══════════════════════════════════════════════════════════ -->
<!-- ZONE 3 — IPPO (534 → 800)                                 -->
<!-- ══════════════════════════════════════════════════════════ -->

<!-- BOXING RING CANVAS -->
<rect x="534" y="175" width="266" height="40" fill="#1a1a2e" rx="2"/>
<rect x="534" y="175" width="266" height="5"  fill="#2d2d44"/>
<!-- ring corner posts -->
<rect x="534" y="58" width="7"  height="155" fill="#78350f" rx="2"/>
<rect x="793" y="58" width="7"  height="155" fill="#78350f" rx="2"/>
<!-- ring ropes (3 rows) -->
<line x1="534" y1="72"  x2="800" y2="72"  stroke="#ef4444" stroke-width="3.5"/>
<line x1="534" y1="88"  x2="800" y2="88"  stroke="#ef4444" stroke-width="3"/>
<line x1="534" y1="104" x2="800" y2="104" stroke="#ef4444" stroke-width="2.5"/>

<!-- ring floor pattern -->
<rect x="534" y="175" width="266" height="40" fill="none" stroke="#2d2d44" stroke-width="0"
/>
<!-- center line on canvas -->
<line x1="667" y1="175" x2="667" y2="215" stroke="#2d2d44" stroke-width="2"/>
<!-- ring corner pads -->
<rect x="534" y="58"  width="18" height="18" fill="#ef4444" rx="3"/>
<rect x="782" y="58"  width="18" height="18" fill="#ef4444" rx="3"/>

<!-- CROWD (back row) -->
<g class="crowd-g">
  <circle cx="550" cy="170" r="6" fill="#374151"/>
  <circle cx="563" cy="167" r="5" fill="#4b5563"/>
  <circle cx="576" cy="171" r="6" fill="#374151"/>
  <circle cx="589" cy="166" r="5" fill="#6b7280"/>
  <circle cx="602" cy="170" r="5" fill="#4b5563"/>
  <circle cx="615" cy="168" r="6" fill="#374151"/>
  <circle cx="628" cy="165" r="5" fill="#6b7280"/>
  <circle cx="710" cy="170" r="6" fill="#374151"/>
  <circle cx="723" cy="167" r="5" fill="#4b5563"/>
  <circle cx="736" cy="171" r="6" fill="#374151"/>
  <circle cx="749" cy="166" r="5" fill="#6b7280"/>
  <circle cx="762" cy="170" r="5" fill="#4b5563"/>
  <circle cx="775" cy="168" r="6" fill="#374151"/>
  <circle cx="788" cy="165" r="5" fill="#6b7280"/>
</g>

<!-- IPPO CHARACTER -->
<g class="ippo-body-g">
  <!-- HEADGEAR (red) -->
  <rect x="633" y="60" width="30" height="28" fill="#dc2626" rx="7"/>
  <rect x="636" y="56" width="24" height="10" fill="#dc2626" rx="5"/>
  <!-- chin strap -->
  <rect x="638" y="85" width="20" height="4"  fill="#b91c1c" rx="2"/>
  <!-- face inside headgear -->
  <rect x="638" y="66" width="20" height="16" fill="#fde68a"/>
  <!-- intense eyebrows -->
  <rect x="638" y="66" width="8"  height="2.5" fill="#92400e" rx="1"/>
  <rect x="651" y="66" width="8"  height="2.5" fill="#92400e" rx="1"/>
  <!-- eyes (narrowed/determined) -->
  <rect x="639" y="69" width="6"  height="4"  fill="#1c1917" rx="1"/>
  <rect x="651" y="69" width="6"  height="4"  fill="#1c1917" rx="1"/>
  <!-- eye glints -->
  <rect x="640" y="70" width="2"  height="1"  fill="#ffffff"/>
  <rect x="652" y="70" width="2"  height="1"  fill="#ffffff"/>
  <!-- mouth (gritted) -->
  <rect x="641" y="78" width="14" height="2"  fill="#1c1917"/>
  <rect x="643" y="76" width="2"  height="4"  fill="#1c1917"/>
  <rect x="648" y="76" width="2"  height="4"  fill="#1c1917"/>
  <rect x="653" y="76" width="2"  height="4"  fill="#1c1917"/>

  <!-- BODY — green boxing shorts/upper -->
  <rect x="634" y="88"  width="28" height="24" fill="#15803d" rx="2"/>
  <!-- collar/chest -->
  <rect x="643" y="88"  width="10" height="6"  fill="#166534"/>
  <!-- SHORTS -->
  <rect x="633" y="112" width="30" height="16" fill="#14532d"/>
  <!-- shorts waistband -->
  <rect x="633" y="112" width="30" height="4"  fill="#166534"/>

  <!-- LEGS -->
  <rect x="635" y="128" width="11" height="20" fill="#fde68a"/>
  <rect x="650" y="128" width="11" height="20" fill="#fde68a"/>
  <!-- boots (red) -->
  <rect x="633" y="146" width="14" height="7"  fill="#dc2626" rx="1"/>
  <rect x="649" y="146" width="14" height="7"  fill="#dc2626" rx="1"/>
  <!-- boot highlights -->
  <rect x="635" y="147" width="5" height="2"   fill="#ef4444"/>
  <rect x="651" y="147" width="5" height="2"   fill="#ef4444"/>

  <!-- LEFT GLOVE (guard — up near face, static) -->
  <rect x="617" y="82"  width="20" height="16" fill="#dc2626" rx="5"/>
  <rect x="615" y="85"  width="8"  height="10" fill="#b91c1c" rx="3"/>
  <!-- glove thumb -->
  <rect x="615" y="84"  width="5"  height="7"  fill="#dc2626" rx="2"/>
  <!-- lace -->
  <line x1="626" y1="83" x2="626" y2="98" stroke="#7f1d1d" stroke-width="1.5"/>
  <line x1="622" y1="86" x2="630" y2="86" stroke="#7f1d1d" stroke-width="1"/>
  <line x1="622" y1="91" x2="630" y2="91" stroke="#7f1d1d" stroke-width="1"/>

  <!-- RIGHT GLOVE — JABBING (animated) -->
  <g class="ippo-jab-g">
    <rect x="661" y="84"  width="22" height="16" fill="#dc2626" rx="5"/>
    <rect x="681" y="87"  width="8"  height="10" fill="#b91c1c" rx="3"/>
    <!-- knuckle ridge -->
    <rect x="679" y="85"  width="4"  height="14" fill="#ef4444" rx="2"/>
    <!-- lace -->
    <line x1="669" y1="85" x2="669" y2="100" stroke="#7f1d1d" stroke-width="1.5"/>
    <line x1="665" y1="89" x2="673" y2="89"  stroke="#7f1d1d" stroke-width="1"/>
    <line x1="665" y1="94" x2="673" y2="94"  stroke="#7f1d1d" stroke-width="1"/>
  </g>
</g>

<!-- IMPACT STAR (flashes on jab landing) -->
<g class="impact-g">
  <polygon points="698,74 702,84 712,82 705,90 710,100 700,95 690,100 695,90 688,82 698,84"
           fill="#fbbf24"/>
  <polygon points="698,77 701,84 709,83 703,89 707,97 700,93 693,97 697,89 691,83 699,84"
           fill="#fef08a"/>
  <text x="698" y="73" text-anchor="middle" fill="#ffffff" font-family="'Courier New',monospace" font-size="9" font-weight="bold">POW!</text>
</g>

<!-- scoreboard -->
<rect x="602" y="157" width="96" height="18" fill="#0d1117" rx="3" opacity="0.95"/>
<text x="650" y="170" text-anchor="middle" fill="#4ade80" font-family="'Courier New',monospace" font-size="8" font-weight="bold">ROUND 1 — FIGHT!</text>

<!-- floor line -->
<rect x="534" y="210" width="266" height="3" fill="#15803d" opacity="0.8"/>

</svg>
